<svg version="1.1" viewBox="0.0 0.0 612.0 378.0" fill="none" stroke="none" stroke-linecap="square" stroke-miterlimit="10" width="612" height="378" xmlns:xlink="http://www.w3.org/1999/xlink" xmlns="http://www.w3.org/2000/svg"><path fill="#ffffff" d="M0 0L612.0 0L612.0 378.0L0 378.0L0 0Z" fill-rule="nonzero"/><path stroke="#333333" stroke-width="1.0" stroke-linecap="butt" d="M77.5 307.5L593.5 307.5" fill-rule="nonzero"/><path stroke="#cccccc" stroke-width="1.0" stroke-linecap="butt" d="M77.5 252.5L593.5 252.5" fill-rule="nonzero"/><path stroke="#cccccc" stroke-width="1.0" stroke-linecap="butt" d="M77.5 198.5L593.5 198.5" fill-rule="nonzero"/><path stroke="#cccccc" stroke-width="1.0" stroke-linecap="butt" d="M77.5 143.5L593.5 143.5" fill-rule="nonzero"/><path stroke="#cccccc" stroke-width="1.0" stroke-linecap="butt" d="M77.5 89.5L593.5 89.5" fill-rule="nonzero"/><clipPath id="id_0"><path d="M77.9 89.1L593.1 89.1L593.1 307.1L77.9 307.1L77.9 89.1Z" clip-rule="nonzero"/></clipPath><path stroke="#4285f4" stroke-width="2.0" stroke-linecap="butt" clip-path="url(#id_0)" d="M163.76666 187.2654C163.76666 187.2654 278.25555 182.2078 335.5 167.2094C392.74445 152.211 507.23334 97.275 507.23334 97.275" fill-rule="nonzero"/><path stroke="#ea4335" stroke-width="2.0" stroke-linecap="butt" clip-path="url(#id_0)" d="M163.76666 265.9416C163.76666 265.9416 278.25555 262.50446 335.5 257.4178C392.74445 252.33113 507.23334 235.4216 507.23334 235.4216" fill-rule="nonzero"/><path fill="#000000" fill-opacity="0.0" clip-path="url(#id_0)" d="M166.76666 187.2654C166.76666 188.92226 165.42352 190.2654 163.76666 190.2654C162.10982 190.2654 160.76666 188.92226 160.76666 187.2654C160.76666 185.60855 162.10982 184.2654 163.76666 184.2654C165.42352 184.2654 166.76666 185.60855 166.76666 187.2654Z" fill-rule="nonzero"/><path fill="#000000" fill-opacity="0.0" clip-path="url(#id_0)" d="M338.5 167.2094C338.5 168.86626 337.15686 170.2094 335.5 170.2094C333.84314 170.2094 332.5 168.86626 332.5 167.2094C332.5 165.55255 333.84314 164.2094 335.5 164.2094C337.15686 164.2094 338.5 165.55255 338.5 167.2094Z" fill-rule="nonzero"/><path fill="#000000" fill-opacity="0.0" clip-path="url(#id_0)" d="M510.23334 97.275C510.23334 98.931854 508.8902 100.275 507.23334 100.275C505.57648 100.275 504.23334 98.931854 504.23334 97.275C504.23334 95.61815 505.57648 94.275 507.23334 94.275C508.8902 94.275 510.23334 95.61815 510.23334 97.275Z" fill-rule="nonzero"/><path fill="#000000" fill-opacity="0.0" clip-path="url(#id_0)" d="M166.76666 265.9416C166.76666 267.59845 165.42352 268.9416 163.76666 268.9416C162.10982 268.9416 160.76666 267.59845 160.76666 265.9416C160.76666 264.28476 162.10982 262.9416 163.76666 262.9416C165.42352 262.9416 166.76666 264.28476 166.76666 265.9416Z" fill-rule="nonzero"/><path fill="#000000" fill-opacity="0.0" clip-path="url(#id_0)" d="M338.5 257.4178C338.5 259.07465 337.15686 260.4178 335.5 260.4178C333.84314 260.4178 332.5 259.07465 332.5 257.4178C332.5 255.76094 333.84314 254.4178 335.5 254.4178C337.15686 254.4178 338.5 255.76094 338.5 257.4178Z" fill-rule="nonzero"/><path fill="#000000" fill-opacity="0.0" clip-path="url(#id_0)" d="M510.23334 235.4216C510.23334 237.07846 508.8902 238.4216 507.23334 238.4216C505.57648 238.4216 504.23334 237.07846 504.23334 235.4216C504.23334 233.76474 505.57648 232.4216 507.23334 232.4216C508.8902 232.4216 510.23334 233.76474 510.23334 235.4216Z" fill-rule="nonzero"/><path fill="#000000" d="M325.125 356.1L325.125 352.49063L321.98438 347.50626L324.01562 347.50626L326.03125 350.9125L328.01562 347.50626L330.01562 347.50626L326.85938 352.49063L326.85938 356.1L325.125 356.1ZM334.46875 354.11563L336.10938 354.39688Q335.79688 355.30313 335.10938 355.77188Q334.42188 356.24063 333.40625 356.24063Q331.78125 356.24063 331.0 355.17813Q330.375 354.33438 330.375 353.0375Q330.375 351.49063 331.1875 350.61563Q332.0 349.74063 333.23438 349.74063Q334.625 349.74063 335.42188 350.6625Q336.23438 351.56876 336.1875 353.45938L332.0625 353.45938Q332.09375 354.19376 332.46875 354.6Q332.84375 355.00626 333.42188 355.00626Q333.79688 355.00626 334.0625 354.80313Q334.32812 354.58438 334.46875 354.11563ZM334.5625 352.45938Q334.54688 351.74063 334.1875 351.36563Q333.84375 350.99063 333.32812 350.99063Q332.79688 350.99063 332.4375 351.38126Q332.09375 351.7875 332.09375 352.45938L334.5625 352.45938ZM339.09375 351.77188L337.59375 351.50626Q337.84375 350.6 338.45312 350.17813Q339.07812 349.74063 340.29688 349.74063Q341.39062 349.74063 341.92188 350.00626Q342.46875 350.25626 342.6875 350.6625Q342.90625 351.05313 342.90625 352.13126L342.89062 354.05313Q342.89062 354.88126 342.96875 355.27188Q343.04688 355.64688 343.26562 356.1L341.64062 356.1Q341.57812 355.92813 341.48438 355.61563Q341.4375 355.45938 341.42188 355.4125Q341.0 355.83438 340.51562 356.0375Q340.04688 356.24063 339.5 356.24063Q338.53125 356.24063 337.96875 355.725Q337.42188 355.19376 337.42188 354.39688Q337.42188 353.86563 337.67188 353.45938Q337.9375 353.05313 338.39062 352.83438Q338.84375 352.6 339.70312 352.44376Q340.84375 352.225 341.29688 352.0375L341.29688 351.88126Q341.29688 351.39688 341.0625 351.19376Q340.82812 350.99063 340.17188 350.99063Q339.73438 350.99063 339.48438 351.1625Q339.25 351.33438 339.09375 351.77188ZM341.29688 353.11563Q340.98438 353.20938 340.29688 353.36563Q339.60938 353.50626 339.39062 353.64688Q339.07812 353.88126 339.07812 354.225Q339.07812 354.56876 339.32812 354.83438Q339.59375 355.08438 339.98438 355.08438Q340.4375 355.08438 340.84375 354.7875Q341.14062 354.56876 341.23438 354.24063Q341.29688 354.0375 341.29688 353.44376L341.29688 353.11563ZM346.4375 356.1L344.79688 356.1L344.79688 349.88126L346.32812 349.88126L346.32812 350.75626Q346.71875 350.13126 347.03125 349.94376Q347.34375 349.74063 347.73438 349.74063Q348.29688 349.74063 348.82812 350.05313L348.3125 351.475Q347.89062 351.20938 347.54688 351.20938Q347.1875 351.20938 346.95312 351.4125Q346.71875 351.6 346.57812 352.1Q346.4375 352.58438 346.4375 354.17813L346.4375 356.1Z" fill-rule="nonzero"/><path fill="#000000" d="M29.900005 219.25626L21.306255 219.25626L21.306255 216.64688L27.16563 215.1L21.306255 213.55313L21.306255 210.95938L29.900005 210.95938L29.900005 212.56876L23.13438 212.56876L29.900005 214.27188L29.900005 215.94376L23.13438 217.63126L29.900005 217.63126L29.900005 219.25626ZM29.900005 209.30313L21.306255 209.30313L21.306255 207.6625L24.400005 207.6625Q23.54063 206.89688 23.54063 205.85Q23.54063 204.725 24.368755 203.975Q25.181255 203.225 26.72813 203.225Q28.32188 203.225 29.181255 203.99063Q30.04063 204.75626 30.04063 205.83438Q30.04063 206.36563 29.775005 206.88126Q29.50938 207.39688 28.97813 207.77188L29.900005 207.77188L29.900005 209.30313ZM26.650005 207.67813Q27.618755 207.67813 28.087505 207.36563Q28.743755 206.94376 28.743755 206.225Q28.743755 205.69376 28.275005 205.30313Q27.806255 204.9125 26.806255 204.9125Q25.743755 204.9125 25.275005 205.30313Q24.79063 205.69376 24.79063 206.30313Q24.79063 206.88126 25.25938 207.2875Q25.712505 207.67813 26.650005 207.67813ZM23.681255 202.2875L23.681255 200.75626L24.587505 200.75626Q24.118755 200.44376 23.837505 199.94376Q23.54063 199.42813 23.54063 198.80313Q23.54063 197.725 24.38438 196.975Q25.22813 196.20938 26.75938 196.20938Q28.306255 196.20938 29.181255 196.975Q30.04063 197.74063 30.04063 198.81876Q30.04063 199.33438 29.837505 199.75626Q29.63438 200.17813 29.13438 200.63126L32.275005 200.63126L32.275005 202.2875L23.681255 202.2875ZM26.681255 200.6625Q27.72813 200.6625 28.22813 200.24063Q28.72813 199.81876 28.72813 199.225Q28.72813 198.64688 28.275005 198.27188Q27.806255 197.89688 26.75938 197.89688Q25.79063 197.89688 25.32188 198.2875Q24.837505 198.67813 24.837505 199.25626Q24.837505 199.86563 25.306255 200.27188Q25.775005 200.6625 26.681255 200.6625ZM28.118755 195.81876L27.868755 194.1625Q28.35313 194.05313 28.60313 193.74063Q28.85313 193.4125 28.85313 192.83438Q28.85313 192.19376 28.618755 191.88126Q28.44688 191.6625 28.181255 191.6625Q27.993755 191.6625 27.868755 191.77188Q27.743755 191.89688 27.650005 192.31876Q27.212505 194.31876 26.85313 194.85Q26.337505 195.58438 25.44688 195.58438Q24.63438 195.58438 24.087505 194.95938Q23.54063 194.31876 23.54063 192.975Q23.54063 191.69376 23.962505 191.06876Q24.368755 190.44376 25.181255 190.20938L25.462505 191.77188Q25.10313 191.86563 24.91563 192.14688Q24.712505 192.42813 24.712505 192.94376Q24.712505 193.58438 24.900005 193.86563Q25.025005 194.05313 25.22813 194.05313Q25.41563 194.05313 25.54063 193.89688Q25.69688 193.67813 25.993755 192.36563Q26.29063 191.0375 26.72813 190.52188Q27.16563 190.00626 27.94688 190.00626Q28.806255 190.00626 29.431255 190.725Q30.04063 191.42813 30.04063 192.83438Q30.04063 194.1 29.525005 194.85Q29.00938 195.58438 28.118755 195.81876Z" fill-rule="nonzero"/><path fill="#000000" d="M65.4 306.86563Q65.4 305.33438 65.7125 304.4125Q66.025 303.475 66.63438 302.975Q67.25938 302.475 68.19688 302.475Q68.88438 302.475 69.4 302.75626Q69.93125 303.0375 70.275 303.56876Q70.61875 304.08438 70.80625 304.83438Q70.99375 305.58438 70.99375 306.86563Q70.99375 308.38126 70.68125 309.30313Q70.38438 310.225 69.75938 310.74063Q69.15 311.24063 68.19688 311.24063Q66.9625 311.24063 66.24375 310.35Q65.4 309.2875 65.4 306.86563ZM66.47813 306.86563Q66.47813 308.975 66.97813 309.67813Q67.47813 310.38126 68.19688 310.38126Q68.93125 310.38126 69.41563 309.67813Q69.91563 308.975 69.91563 306.86563Q69.91563 304.74063 69.41563 304.05313Q68.93125 303.35 68.18125 303.35Q67.4625 303.35 67.025 303.95938Q66.47813 304.74063 66.47813 306.86563Z" fill-rule="nonzero"/><path fill="#000000" d="M63.946877 255.58438L63.946877 256.6L58.259377 256.6Q58.259377 256.225 58.384377 255.86563Q58.603127 255.2875 59.071877 254.725Q59.55625 254.1625 60.4625 253.42813Q61.86875 252.27188 62.353127 251.6Q62.853127 250.92813 62.853127 250.33438Q62.853127 249.70938 62.4 249.2875Q61.946877 248.85 61.228127 248.85Q60.4625 248.85 60.009377 249.30313Q59.55625 249.75626 59.540627 250.56876L58.4625 250.45938Q58.571877 249.24063 59.290627 248.61563Q60.025 247.975 61.259377 247.975Q62.49375 247.975 63.2125 248.6625Q63.93125 249.35 63.93125 250.36563Q63.93125 250.88126 63.7125 251.38126Q63.509377 251.86563 63.009377 252.42813Q62.525 252.975 61.4 253.92813Q60.446877 254.725 60.165627 255.02188Q59.9 255.30313 59.728127 255.58438L63.946877 255.58438ZM65.4 254.35L66.50938 254.25626Q66.63438 255.06876 67.07188 255.475Q67.525 255.88126 68.16563 255.88126Q68.91563 255.88126 69.44688 255.30313Q69.97813 254.725 69.97813 253.7875Q69.97813 252.88126 69.4625 252.36563Q68.9625 251.83438 68.13438 251.83438Q67.63438 251.83438 67.2125 252.06876Q66.80625 252.30313 66.57188 252.6625L65.5875 252.5375L66.41563 248.13126L70.69688 248.13126L70.69688 249.13126L67.25938 249.13126L66.80625 251.44376Q67.57188 250.89688 68.41563 250.89688Q69.54063 250.89688 70.30625 251.67813Q71.0875 252.45938 71.0875 253.69376Q71.0875 254.85 70.41563 255.70938Q69.5875 256.74063 68.16563 256.74063Q66.99375 256.74063 66.24375 256.08438Q65.50938 255.42813 65.4 254.35Z" fill-rule="nonzero"/><path fill="#000000" d="M58.4 199.85L59.509377 199.75626Q59.634377 200.56876 60.071877 200.975Q60.525 201.38126 61.165627 201.38126Q61.915627 201.38126 62.446877 200.80313Q62.978127 200.225 62.978127 199.2875Q62.978127 198.38126 62.4625 197.86563Q61.9625 197.33438 61.134377 197.33438Q60.634377 197.33438 60.2125 197.56876Q59.80625 197.80313 59.571877 198.1625L58.5875 198.0375L59.415627 193.63126L63.696877 193.63126L63.696877 194.63126L60.259377 194.63126L59.80625 196.94376Q60.571877 196.39688 61.415627 196.39688Q62.540627 196.39688 63.30625 197.17813Q64.0875 197.95938 64.0875 199.19376Q64.0875 200.35 63.415627 201.20938Q62.5875 202.24063 61.165627 202.24063Q59.99375 202.24063 59.24375 201.58438Q58.509377 200.92813 58.4 199.85ZM65.4 197.86563Q65.4 196.33438 65.7125 195.4125Q66.025 194.475 66.63438 193.975Q67.25938 193.475 68.19688 193.475Q68.88438 193.475 69.4 193.75626Q69.93125 194.0375 70.275 194.56876Q70.61875 195.08438 70.80625 195.83438Q70.99375 196.58438 70.99375 197.86563Q70.99375 199.38126 70.68125 200.30313Q70.38438 201.225 69.75938 201.74063Q69.15 202.24063 68.19688 202.24063Q66.9625 202.24063 66.24375 201.35Q65.4 200.2875 65.4 197.86563ZM66.47813 197.86563Q66.47813 199.975 66.97813 200.67813Q67.47813 201.38126 68.19688 201.38126Q68.93125 201.38126 69.41563 200.67813Q69.91563 199.975 69.91563 197.86563Q69.91563 195.74063 69.41563 195.05313Q68.93125 194.35 68.18125 194.35Q67.4625 194.35 67.025 194.95938Q66.47813 195.74063 66.47813 197.86563Z" fill-rule="nonzero"/><path fill="#000000" d="M58.4625 140.13126L58.4625 139.11563L64.025 139.11563L64.025 139.94376Q63.2125 140.81876 62.4 142.27188Q61.603127 143.70938 61.165627 145.24063Q60.8375 146.31876 60.759377 147.6L59.665627 147.6Q59.68125 146.58438 60.05625 145.14688Q60.446877 143.70938 61.15 142.38126Q61.86875 141.05313 62.68125 140.13126L58.4625 140.13126ZM65.4 145.35L66.50938 145.25626Q66.63438 146.06876 67.07188 146.475Q67.525 146.88126 68.16563 146.88126Q68.91563 146.88126 69.44688 146.30313Q69.97813 145.725 69.97813 144.7875Q69.97813 143.88126 69.4625 143.36563Q68.9625 142.83438 68.13438 142.83438Q67.63438 142.83438 67.2125 143.06876Q66.80625 143.30313 66.57188 143.6625L65.5875 143.5375L66.41563 139.13126L70.69688 139.13126L70.69688 140.13126L67.25938 140.13126L66.80625 142.44376Q67.57188 141.89688 68.41563 141.89688Q69.54063 141.89688 70.30625 142.67813Q71.0875 143.45938 71.0875 144.69376Q71.0875 145.85 70.41563 146.70938Q69.5875 147.74063 68.16563 147.74063Q66.99375 147.74063 66.24375 147.08438Q65.50938 146.42813 65.4 145.35Z" fill-rule="nonzero"/><path fill="#000000" d="M55.36875 93.1L54.321877 93.1L54.321877 86.38125Q53.93125 86.74062 53.30625 87.11562Q52.696877 87.475 52.2125 87.64687L52.2125 86.63125Q53.0875 86.20937 53.74375 85.63125Q54.415627 85.0375 54.696877 84.475L55.36875 84.475L55.36875 93.1ZM58.4 88.86562Q58.4 87.33437 58.7125 86.4125Q59.025 85.475 59.634377 84.975Q60.259377 84.475 61.196877 84.475Q61.884377 84.475 62.4 84.75625Q62.93125 85.0375 63.275 85.56875Q63.61875 86.08437 63.80625 86.83437Q63.99375 87.58437 63.99375 88.86562Q63.99375 90.38125 63.68125 91.30312Q63.384377 92.225 62.759377 92.74062Q62.15 93.24062 61.196877 93.24062Q59.9625 93.24062 59.24375 92.35Q58.4 91.2875 58.4 88.86562ZM59.478127 88.86562Q59.478127 90.975 59.978127 91.67812Q60.478127 92.38125 61.196877 92.38125Q61.93125 92.38125 62.415627 91.67812Q62.915627 90.975 62.915627 88.86562Q62.915627 86.74062 62.415627 86.05312Q61.93125 85.35 61.18125 85.35Q60.4625 85.35 60.025 85.95937Q59.478127 86.74062 59.478127 88.86562ZM65.4 88.86562Q65.4 87.33437 65.7125 86.4125Q66.025 85.475 66.63438 84.975Q67.25938 84.475 68.19688 84.475Q68.88438 84.475 69.4 84.75625Q69.93125 85.0375 70.275 85.56875Q70.61875 86.08437 70.80625 86.83437Q70.99375 87.58437 70.99375 88.86562Q70.99375 90.38125 70.68125 91.30312Q70.38438 92.225 69.75938 92.74062Q69.15 93.24062 68.19688 93.24062Q66.9625 93.24062 66.24375 92.35Q65.4 91.2875 65.4 88.86562ZM66.47813 88.86562Q66.47813 90.975 66.97813 91.67812Q67.47813 92.38125 68.19688 92.38125Q68.93125 92.38125 69.41563 91.67812Q69.91563 90.975 69.91563 88.86562Q69.91563 86.74062 69.41563 86.05312Q68.93125 85.35 68.18125 85.35Q67.4625 85.35 67.025 85.95937Q66.47813 86.74062 66.47813 88.86562Z" fill-rule="nonzero"/><path fill="#000000" d="M155.81354 323.08438L155.81354 324.1L150.12604 324.1Q150.12604 323.725 150.25104 323.36563Q150.46979 322.7875 150.93854 322.225Q151.42291 321.6625 152.32916 320.92813Q153.73541 319.77188 154.21979 319.1Q154.71979 318.42813 154.71979 317.83438Q154.71979 317.20938 154.26666 316.7875Q153.81354 316.35 153.09479 316.35Q152.32916 316.35 151.87604 316.80313Q151.42291 317.25626 151.40729 318.06876L150.32916 317.95938Q150.43854 316.74063 151.15729 316.11563Q151.89166 315.475 153.12604 315.475Q154.36041 315.475 155.07916 316.1625Q155.79791 316.85 155.79791 317.86563Q155.79791 318.38126 155.57916 318.88126Q155.37604 319.36563 154.87604 319.92813Q154.39166 320.475 153.26666 321.42813Q152.31354 322.225 152.03229 322.52188Q151.76666 322.80313 151.59479 323.08438L155.81354 323.08438ZM157.26666 319.86563Q157.26666 318.33438 157.57916 317.4125Q157.89166 316.475 158.50104 315.975Q159.12604 315.475 160.06354 315.475Q160.75104 315.475 161.26666 315.75626Q161.79791 316.0375 162.14166 316.56876Q162.48541 317.08438 162.67291 317.83438Q162.86041 318.58438 162.86041 319.86563Q162.86041 321.38126 162.54791 322.30313Q162.25104 323.225 161.62604 323.74063Q161.01666 324.24063 160.06354 324.24063Q158.82916 324.24063 158.11041 323.35Q157.26666 322.2875 157.26666 319.86563ZM158.34479 319.86563Q158.34479 321.975 158.84479 322.67813Q159.34479 323.38126 160.06354 323.38126Q160.79791 323.38126 161.28229 322.67813Q161.78229 321.975 161.78229 319.86563Q161.78229 317.74063 161.28229 317.05313Q160.79791 316.35 160.04791 316.35Q159.32916 316.35 158.89166 316.95938Q158.34479 317.74063 158.34479 319.86563ZM168.23541 324.1L167.18854 324.1L167.18854 317.38126Q166.79791 317.74063 166.17291 318.11563Q165.56354 318.475 165.07916 318.64688L165.07916 317.63126Q165.95416 317.20938 166.61041 316.63126Q167.28229 316.0375 167.56354 315.475L168.23541 315.475L168.23541 324.1ZM176.73541 317.61563L175.68854 317.69376Q175.54791 317.06876 175.29791 316.7875Q174.86041 316.33438 174.23541 316.33438Q173.73541 316.33438 173.34479 316.61563Q172.86041 316.99063 172.56354 317.69376Q172.28229 318.38126 172.26666 319.6625Q172.64166 319.08438 173.18854 318.80313Q173.75104 318.52188 174.36041 318.52188Q175.40729 318.52188 176.14166 319.30313Q176.89166 320.08438 176.89166 321.30313Q176.89166 322.11563 176.53229 322.81876Q176.18854 323.50626 175.57916 323.88126Q174.96979 324.24063 174.20416 324.24063Q172.87604 324.24063 172.04791 323.27188Q171.21979 322.30313 171.21979 320.08438Q171.21979 317.58438 172.14166 316.45938Q172.93854 315.475 174.29791 315.475Q175.31354 315.475 175.95416 316.05313Q176.61041 316.61563 176.73541 317.61563ZM172.43854 321.31876Q172.43854 321.86563 172.65729 322.36563Q172.89166 322.85 173.29791 323.11563Q173.71979 323.38126 174.18854 323.38126Q174.84479 323.38126 175.32916 322.85Q175.81354 322.30313 175.81354 321.38126Q175.81354 320.49063 175.32916 319.975Q174.86041 319.45938 174.14166 319.45938Q173.42291 319.45938 172.92291 319.975Q172.43854 320.49063 172.43854 321.31876Z" fill-rule="nonzero"/><path fill="#000000" d="M327.54688 323.08438L327.54688 324.1L321.85938 324.1Q321.85938 323.725 321.98438 323.36563Q322.20312 322.7875 322.67188 322.225Q323.15625 321.6625 324.0625 320.92813Q325.46875 319.77188 325.95312 319.1Q326.45312 318.42813 326.45312 317.83438Q326.45312 317.20938 326.0 316.7875Q325.54688 316.35 324.82812 316.35Q324.0625 316.35 323.60938 316.80313Q323.15625 317.25626 323.14062 318.06876L322.0625 317.95938Q322.17188 316.74063 322.89062 316.11563Q323.625 315.475 324.85938 315.475Q326.09375 315.475 326.8125 316.1625Q327.53125 316.85 327.53125 317.86563Q327.53125 318.38126 327.3125 318.88126Q327.10938 319.36563 326.60938 319.92813Q326.125 320.475 325.0 321.42813Q324.04688 322.225 323.76562 322.52188Q323.5 322.80313 323.32812 323.08438L327.54688 323.08438ZM329.0 319.86563Q329.0 318.33438 329.3125 317.4125Q329.625 316.475 330.23438 315.975Q330.85938 315.475 331.79688 315.475Q332.48438 315.475 333.0 315.75626Q333.53125 316.0375 333.875 316.56876Q334.21875 317.08438 334.40625 317.83438Q334.59375 318.58438 334.59375 319.86563Q334.59375 321.38126 334.28125 322.30313Q333.98438 323.225 333.35938 323.74063Q332.75 324.24063 331.79688 324.24063Q330.5625 324.24063 329.84375 323.35Q329.0 322.2875 329.0 319.86563ZM330.07812 319.86563Q330.07812 321.975 330.57812 322.67813Q331.07812 323.38126 331.79688 323.38126Q332.53125 323.38126 333.01562 322.67813Q333.51562 321.975 333.51562 319.86563Q333.51562 317.74063 333.01562 317.05313Q332.53125 316.35 331.78125 316.35Q331.0625 316.35 330.625 316.95938Q330.07812 317.74063 330.07812 319.86563ZM339.96875 324.1L338.92188 324.1L338.92188 317.38126Q338.53125 317.74063 337.90625 318.11563Q337.29688 318.475 336.8125 318.64688L336.8125 317.63126Q337.6875 317.20938 338.34375 316.63126Q339.01562 316.0375 339.29688 315.475L339.96875 315.475L339.96875 324.1ZM343.0625 316.63126L343.0625 315.61563L348.625 315.61563L348.625 316.44376Q347.8125 317.31876 347.0 318.77188Q346.20312 320.20938 345.76562 321.74063Q345.4375 322.81876 345.35938 324.1L344.26562 324.1Q344.28125 323.08438 344.65625 321.64688Q345.04688 320.20938 345.75 318.88126Q346.46875 317.55313 347.28125 316.63126L343.0625 316.63126Z" fill-rule="nonzero"/><path fill="#000000" d="M499.2802 323.08438L499.2802 324.1L493.5927 324.1Q493.5927 323.725 493.7177 323.36563Q493.93646 322.7875 494.4052 322.225Q494.8896 321.6625 495.79584 320.92813Q497.2021 319.77188 497.68646 319.1Q498.18646 318.42813 498.18646 317.83438Q498.18646 317.20938 497.73334 316.7875Q497.2802 316.35 496.56146 316.35Q495.79584 316.35 495.3427 316.80313Q494.8896 317.25626 494.87396 318.06876L493.79584 317.95938Q493.9052 316.74063 494.62396 316.11563Q495.35834 315.475 496.5927 315.475Q497.8271 315.475 498.54584 316.1625Q499.2646 316.85 499.2646 317.86563Q499.2646 318.38126 499.04584 318.88126Q498.8427 319.36563 498.3427 319.92813Q497.85834 320.475 496.73334 321.42813Q495.7802 322.225 495.49896 322.52188Q495.23334 322.80313 495.06146 323.08438L499.2802 323.08438ZM500.73334 319.86563Q500.73334 318.33438 501.04584 317.4125Q501.35834 316.475 501.9677 315.975Q502.5927 315.475 503.5302 315.475Q504.2177 315.475 504.73334 315.75626Q505.2646 316.0375 505.60834 316.56876Q505.9521 317.08438 506.1396 317.83438Q506.3271 318.58438 506.3271 319.86563Q506.3271 321.38126 506.0146 322.30313Q505.7177 323.225 505.0927 323.74063Q504.48334 324.24063 503.5302 324.24063Q502.29584 324.24063 501.5771 323.35Q500.73334 322.2875 500.73334 319.86563ZM501.81146 319.86563Q501.81146 321.975 502.31146 322.67813Q502.81146 323.38126 503.5302 323.38126Q504.2646 323.38126 504.74896 322.67813Q505.24896 321.975 505.24896 319.86563Q505.24896 317.74063 504.74896 317.05313Q504.2646 316.35 503.5146 316.35Q502.79584 316.35 502.35834 316.95938Q501.81146 317.74063 501.81146 319.86563ZM511.7021 324.1L510.6552 324.1L510.6552 317.38126Q510.2646 317.74063 509.6396 318.11563Q509.0302 318.475 508.54584 318.64688L508.54584 317.63126Q509.42084 317.20938 510.0771 316.63126Q510.74896 316.0375 511.0302 315.475L511.7021 315.475L511.7021 324.1ZM516.35834 319.44376Q515.7021 319.19376 515.37396 318.75626Q515.06146 318.30313 515.06146 317.69376Q515.06146 316.75626 515.73334 316.11563Q516.42084 315.475 517.5302 315.475Q518.6552 315.475 519.3427 316.13126Q520.0302 316.7875 520.0302 317.725Q520.0302 318.31876 519.7177 318.75626Q519.4052 319.19376 518.7646 319.44376Q519.56146 319.69376 519.9677 320.27188Q520.37396 320.85 520.37396 321.64688Q520.37396 322.74063 519.5927 323.49063Q518.8271 324.24063 517.54584 324.24063Q516.2802 324.24063 515.49896 323.49063Q514.7177 322.74063 514.7177 321.61563Q514.7177 320.77188 515.1396 320.20938Q515.5771 319.64688 516.35834 319.44376ZM516.1396 317.64688Q516.1396 318.25626 516.5302 318.64688Q516.93646 319.0375 517.56146 319.0375Q518.17084 319.0375 518.56146 318.6625Q518.9521 318.27188 518.9521 317.70938Q518.9521 317.13126 518.54584 316.74063Q518.1396 316.33438 517.54584 316.33438Q516.93646 316.33438 516.5302 316.725Q516.1396 317.11563 516.1396 317.64688ZM515.81146 321.61563Q515.81146 322.06876 516.0146 322.49063Q516.23334 322.9125 516.6552 323.14688Q517.0771 323.38126 517.56146 323.38126Q518.31146 323.38126 518.79584 322.89688Q519.29584 322.4125 519.29584 321.6625Q519.29584 320.89688 518.79584 320.39688Q518.29584 319.89688 517.5302 319.89688Q516.7802 319.89688 516.29584 320.39688Q515.81146 320.88126 515.81146 321.61563Z" fill-rule="nonzero"/><path stroke="#4285f4" stroke-width="4.0" stroke-linecap="butt" d="M230.0 62.5L242.0 62.5" fill-rule="nonzero"/><path fill="#1a1a1a" d="M250.92188 66.5L250.92188 57.90625L253.89062 57.90625Q254.89062 57.90625 255.42188 58.03125Q256.15625 58.203125 256.67188 58.640625Q257.35938 59.21875 257.6875 60.125Q258.03125 61.015625 258.03125 62.15625Q258.03125 63.140625 257.79688 63.890625Q257.57812 64.640625 257.21875 65.140625Q256.85938 65.640625 256.42188 65.921875Q256.0 66.203125 255.40625 66.359375Q254.8125 66.5 254.03125 66.5L250.92188 66.5ZM252.0625 65.484375L253.89062 65.484375Q254.75 65.484375 255.23438 65.328125Q255.71875 65.171875 256.0 64.875Q256.40625 64.484375 256.625 63.796875Q256.85938 63.109375 256.85938 62.140625Q256.85938 60.796875 256.40625 60.078125Q255.96875 59.34375 255.34375 59.09375Q254.875 58.921875 253.875 58.921875L252.0625 58.921875L252.0625 65.484375ZM259.40625 63.390625Q259.40625 61.65625 260.35938 60.828125Q261.15625 60.140625 262.3125 60.140625Q263.59375 60.140625 264.40625 60.984375Q265.23438 61.8125 265.23438 63.296875Q265.23438 64.5 264.875 65.1875Q264.51562 65.875 263.8125 66.265625Q263.125 66.640625 262.3125 66.640625Q261.01562 66.640625 260.20312 65.8125Q259.40625 64.96875 259.40625 63.390625ZM260.48438 63.390625Q260.48438 64.578125 261.0 65.171875Q261.53125 65.765625 262.3125 65.765625Q263.10938 65.765625 263.625 65.171875Q264.14062 64.578125 264.14062 63.359375Q264.14062 62.203125 263.60938 61.609375Q263.09375 61.015625 262.3125 61.015625Q261.53125 61.015625 261.0 61.609375Q260.48438 62.1875 260.48438 63.390625ZM267.9375 66.5L266.03125 60.28125L267.125 60.28125L268.10938 63.875L268.48438 65.203125Q268.51562 65.109375 268.8125 63.921875L269.79688 60.28125L270.875 60.28125L271.8125 63.890625L272.125 65.078125L272.48438 63.875L273.54688 60.28125L274.57812 60.28125L272.625 66.5L271.53125 66.5L270.54688 62.765625L270.29688 61.71875L269.04688 66.5L267.9375 66.5ZM275.79688 66.5L275.79688 60.28125L276.73438 60.28125L276.73438 61.15625Q277.42188 60.140625 278.71875 60.140625Q279.28125 60.140625 279.75 60.34375Q280.23438 60.546875 280.46875 60.875Q280.70312 61.203125 280.79688 61.640625Q280.84375 61.9375 280.84375 62.671875L280.84375 66.5L279.79688 66.5L279.79688 62.71875Q279.79688 62.0625 279.67188 61.75Q279.54688 61.4375 279.23438 61.25Q278.92188 61.046875 278.5 61.046875Q277.82812 61.046875 277.32812 61.484375Q276.84375 61.90625 276.84375 63.09375L276.84375 66.5L275.79688 66.5ZM282.76562 66.5L282.76562 57.90625L283.82812 57.90625L283.82812 66.5L282.76562 66.5ZM285.40625 63.390625Q285.40625 61.65625 286.35938 60.828125Q287.15625 60.140625 288.3125 60.140625Q289.59375 60.140625 290.40625 60.984375Q291.23438 61.8125 291.23438 63.296875Q291.23438 64.5 290.875 65.1875Q290.51562 65.875 289.8125 66.265625Q289.125 66.640625 288.3125 66.640625Q287.01562 66.640625 286.20312 65.8125Q285.40625 64.96875 285.40625 63.390625ZM286.48438 63.390625Q286.48438 64.578125 287.0 65.171875Q287.53125 65.765625 288.3125 65.765625Q289.10938 65.765625 289.625 65.171875Q290.14062 64.578125 290.14062 63.359375Q290.14062 62.203125 289.60938 61.609375Q289.09375 61.015625 288.3125 61.015625Q287.53125 61.015625 287.0 61.609375Q286.48438 62.1875 286.48438 63.390625ZM296.85938 65.734375Q296.26562 66.234375 295.71875 66.4375Q295.1875 66.640625 294.5625 66.640625Q293.53125 66.640625 292.98438 66.140625Q292.4375 65.640625 292.4375 64.859375Q292.4375 64.40625 292.64062 64.03125Q292.84375 63.640625 293.1875 63.421875Q293.53125 63.1875 293.95312 63.078125Q294.25 62.984375 294.89062 62.90625Q296.15625 62.765625 296.76562 62.546875Q296.76562 62.328125 296.76562 62.28125Q296.76562 61.625 296.46875 61.359375Q296.0625 61.015625 295.26562 61.015625Q294.53125 61.015625 294.17188 61.28125Q293.8125 61.53125 293.64062 62.1875L292.60938 62.046875Q292.75 61.390625 293.07812 60.984375Q293.40625 60.578125 294.01562 60.359375Q294.625 60.140625 295.42188 60.140625Q296.21875 60.140625 296.71875 60.328125Q297.21875 60.515625 297.45312 60.796875Q297.6875 61.078125 297.78125 61.515625Q297.82812 61.78125 297.82812 62.484375L297.82812 63.890625Q297.82812 65.359375 297.89062 65.75Q297.96875 66.140625 298.17188 66.5L297.0625 66.5Q296.90625 66.171875 296.85938 65.734375ZM296.76562 63.375Q296.1875 63.609375 295.04688 63.78125Q294.39062 63.875 294.125 64.0Q293.85938 64.109375 293.70312 64.328125Q293.5625 64.546875 293.5625 64.828125Q293.5625 65.25 293.875 65.53125Q294.20312 65.8125 294.8125 65.8125Q295.42188 65.8125 295.89062 65.546875Q296.375 65.28125 296.59375 64.8125Q296.76562 64.453125 296.76562 63.765625L296.76562 63.375ZM303.82812 66.5L303.82812 65.71875Q303.23438 66.640625 302.09375 66.640625Q301.34375 66.640625 300.71875 66.234375Q300.09375 65.8125 299.75 65.078125Q299.40625 64.34375 299.40625 63.390625Q299.40625 62.46875 299.71875 61.703125Q300.03125 60.9375 300.65625 60.546875Q301.28125 60.140625 302.04688 60.140625Q302.60938 60.140625 303.04688 60.375Q303.48438 60.609375 303.76562 60.984375L303.76562 57.90625L304.8125 57.90625L304.8125 66.5L303.82812 66.5ZM300.5 63.390625Q300.5 64.59375 301.0 65.1875Q301.5 65.765625 302.1875 65.765625Q302.875 65.765625 303.35938 65.203125Q303.84375 64.640625 303.84375 63.484375Q303.84375 62.203125 303.34375 61.609375Q302.85938 61.015625 302.14062 61.015625Q301.4375 61.015625 300.96875 61.59375Q300.5 62.15625 300.5 63.390625Z" fill-rule="nonzero"/><path stroke="#ea4335" stroke-width="4.0" stroke-linecap="butt" d="M322.0 62.5L334.0 62.5" fill-rule="nonzero"/><path fill="#1a1a1a" d="M348.5625 57.90625L349.70312 57.90625L349.70312 62.875Q349.70312 64.171875 349.40625 64.9375Q349.10938 65.6875 348.34375 66.171875Q347.57812 66.640625 346.34375 66.640625Q345.14062 66.640625 344.35938 66.234375Q343.59375 65.8125 343.26562 65.03125Q342.9375 64.234375 342.9375 62.875L342.9375 57.90625L344.07812 57.90625L344.07812 62.859375Q344.07812 63.984375 344.28125 64.515625Q344.5 65.046875 345.0 65.34375Q345.51562 65.625 346.25 65.625Q347.5 65.625 348.03125 65.0625Q348.5625 64.484375 348.5625 62.859375L348.5625 57.90625ZM351.79688 68.890625L351.79688 60.28125L352.75 60.28125L352.75 61.078125Q353.09375 60.609375 353.51562 60.375Q353.95312 60.140625 354.5625 60.140625Q355.35938 60.140625 355.96875 60.546875Q356.57812 60.953125 356.875 61.703125Q357.1875 62.453125 357.1875 63.34375Q357.1875 64.296875 356.84375 65.0625Q356.51562 65.828125 355.85938 66.234375Q355.20312 66.640625 354.48438 66.640625Q353.95312 66.640625 353.53125 66.421875Q353.10938 66.1875 352.84375 65.859375L352.84375 68.890625L351.79688 68.890625ZM352.75 63.421875Q352.75 64.625 353.23438 65.203125Q353.71875 65.765625 354.40625 65.765625Q355.10938 65.765625 355.60938 65.171875Q356.10938 64.578125 356.10938 63.328125Q356.10938 62.140625 355.625 61.5625Q355.14062 60.96875 354.45312 60.96875Q353.78125 60.96875 353.26562 61.59375Q352.75 62.21875 352.75 63.421875ZM358.76562 66.5L358.76562 57.90625L359.82812 57.90625L359.82812 66.5L358.76562 66.5ZM361.40625 63.390625Q361.40625 61.65625 362.35938 60.828125Q363.15625 60.140625 364.3125 60.140625Q365.59375 60.140625 366.40625 60.984375Q367.23438 61.8125 367.23438 63.296875Q367.23438 64.5 366.875 65.1875Q366.51562 65.875 365.8125 66.265625Q365.125 66.640625 364.3125 66.640625Q363.01562 66.640625 362.20312 65.8125Q361.40625 64.96875 361.40625 63.390625ZM362.48438 63.390625Q362.48438 64.578125 363.0 65.171875Q363.53125 65.765625 364.3125 65.765625Q365.10938 65.765625 365.625 65.171875Q366.14062 64.578125 366.14062 63.359375Q366.14062 62.203125 365.60938 61.609375Q365.09375 61.015625 364.3125 61.015625Q363.53125 61.015625 363.0 61.609375Q362.48438 62.1875 362.48438 63.390625ZM372.85938 65.734375Q372.26562 66.234375 371.71875 66.4375Q371.1875 66.640625 370.5625 66.640625Q369.53125 66.640625 368.98438 66.140625Q368.4375 65.640625 368.4375 64.859375Q368.4375 64.40625 368.64062 64.03125Q368.84375 63.640625 369.1875 63.421875Q369.53125 63.1875 369.95312 63.078125Q370.25 62.984375 370.89062 62.90625Q372.15625 62.765625 372.76562 62.546875Q372.76562 62.328125 372.76562 62.28125Q372.76562 61.625 372.46875 61.359375Q372.0625 61.015625 371.26562 61.015625Q370.53125 61.015625 370.17188 61.28125Q369.8125 61.53125 369.64062 62.1875L368.60938 62.046875Q368.75 61.390625 369.07812 60.984375Q369.40625 60.578125 370.01562 60.359375Q370.625 60.140625 371.42188 60.140625Q372.21875 60.140625 372.71875 60.328125Q373.21875 60.515625 373.45312 60.796875Q373.6875 61.078125 373.78125 61.515625Q373.82812 61.78125 373.82812 62.484375L373.82812 63.890625Q373.82812 65.359375 373.89062 65.75Q373.96875 66.140625 374.17188 66.5L373.0625 66.5Q372.90625 66.171875 372.85938 65.734375ZM372.76562 63.375Q372.1875 63.609375 371.04688 63.78125Q370.39062 63.875 370.125 64.0Q369.85938 64.109375 369.70312 64.328125Q369.5625 64.546875 369.5625 64.828125Q369.5625 65.25 369.875 65.53125Q370.20312 65.8125 370.8125 65.8125Q371.42188 65.8125 371.89062 65.546875Q372.375 65.28125 372.59375 64.8125Q372.76562 64.453125 372.76562 63.765625L372.76562 63.375ZM379.82812 66.5L379.82812 65.71875Q379.23438 66.640625 378.09375 66.640625Q377.34375 66.640625 376.71875 66.234375Q376.09375 65.8125 375.75 65.078125Q375.40625 64.34375 375.40625 63.390625Q375.40625 62.46875 375.71875 61.703125Q376.03125 60.9375 376.65625 60.546875Q377.28125 60.140625 378.04688 60.140625Q378.60938 60.140625 379.04688 60.375Q379.48438 60.609375 379.76562 60.984375L379.76562 57.90625L380.8125 57.90625L380.8125 66.5L379.82812 66.5ZM376.5 63.390625Q376.5 64.59375 377.0 65.1875Q377.5 65.765625 378.1875 65.765625Q378.875 65.765625 379.35938 65.203125Q379.84375 64.640625 379.84375 63.484375Q379.84375 62.203125 379.34375 61.609375Q378.85938 61.015625 378.14062 61.015625Q377.4375 61.015625 376.96875 61.59375Q376.5 62.15625 376.5 63.390625Z" fill-rule="nonzero"/><path fill="#757575" d="M209.4375 23.587502L211.32812 23.587502L211.32812 31.853127Q211.32812 34.009377 210.84375 35.290627Q210.35938 36.55625 209.07812 37.353127Q207.8125 38.15 205.73438 38.15Q203.71875 38.15 202.4375 37.4625Q201.17188 36.759377 200.625 35.446877Q200.07812 34.134377 200.07812 31.853127L200.07812 23.587502L201.96875 23.587502L201.96875 31.837502Q201.96875 33.7125 202.3125 34.603127Q202.65625 35.478127 203.5 35.9625Q204.34375 36.43125 205.57812 36.43125Q207.65625 36.43125 208.54688 35.49375Q209.4375 34.540627 209.4375 31.837502L209.4375 23.587502ZM214.3125 37.9L214.3125 35.9L216.3125 35.9L216.3125 37.9L214.3125 37.9ZM219.40625 33.30625L221.1875 33.15Q221.3125 34.2125 221.76562 34.9Q222.23438 35.5875 223.20312 36.025Q224.1875 36.446877 225.42188 36.446877Q226.5 36.446877 227.32812 36.134377Q228.15625 35.80625 228.5625 35.24375Q228.96875 34.68125 228.96875 34.009377Q228.96875 33.3375 228.57812 32.8375Q228.1875 32.3375 227.29688 31.993752Q226.71875 31.759377 224.73438 31.290627Q222.76562 30.821877 221.98438 30.400002Q220.95312 29.868752 220.45312 29.071877Q219.95312 28.275002 219.95312 27.290627Q219.95312 26.196877 220.5625 25.259377Q221.17188 24.321877 222.35938 23.837502Q223.54688 23.337502 224.98438 23.337502Q226.57812 23.337502 227.79688 23.853127Q229.01562 24.368752 229.65625 25.368752Q230.3125 26.353127 230.35938 27.618752L228.54688 27.759377Q228.40625 26.400002 227.5625 25.712502Q226.71875 25.009377 225.0625 25.009377Q223.34375 25.009377 222.54688 25.650002Q221.76562 26.275002 221.76562 27.150002Q221.76562 27.931252 222.32812 28.431252Q222.875 28.931252 225.1875 29.446877Q227.5 29.962502 228.35938 30.353127Q229.60938 30.931252 230.20312 31.821877Q230.79688 32.696877 230.79688 33.853127Q230.79688 34.99375 230.14062 36.009377Q229.48438 37.025 228.25 37.5875Q227.03125 38.15 225.5 38.15Q223.5625 38.15 222.25 37.5875Q220.9375 37.009377 220.1875 35.86875Q219.4375 34.728127 219.40625 33.30625ZM233.3125 37.9L233.3125 35.9L235.3125 35.9L235.3125 37.9L233.3125 37.9ZM244.96875 37.9L244.96875 23.587502L250.34375 23.587502Q251.98438 23.587502 252.96875 24.025002Q253.95312 24.446877 254.51562 25.353127Q255.07812 26.259377 255.07812 27.243752Q255.07812 28.165627 254.57812 28.978127Q254.09375 29.790627 253.07812 30.275002Q254.375 30.665627 255.07812 31.587502Q255.78125 32.49375 255.78125 33.74375Q255.78125 34.759377 255.34375 35.61875Q254.92188 36.478127 254.29688 36.946877Q253.67188 37.415627 252.73438 37.665627Q251.79688 37.9 250.42188 37.9L244.96875 37.9ZM246.85938 29.603127L249.95312 29.603127Q251.21875 29.603127 251.76562 29.431252Q252.48438 29.212502 252.84375 28.728127Q253.21875 28.228127 253.21875 27.462502Q253.21875 26.759377 252.875 26.212502Q252.53125 25.665627 251.89062 25.478127Q251.26562 25.275002 249.71875 25.275002L246.85938 25.275002L246.85938 29.603127ZM246.85938 36.2125L250.42188 36.2125Q251.34375 36.2125 251.71875 36.134377Q252.375 36.025 252.8125 35.759377Q253.25 35.478127 253.53125 34.9625Q253.8125 34.43125 253.8125 33.74375Q253.8125 32.946877 253.40625 32.353127Q253.0 31.759377 252.26562 31.525002Q251.53125 31.290627 250.17188 31.290627L246.85938 31.290627L246.85938 36.2125ZM257.79688 37.9L257.79688 27.525002L259.375 27.525002L259.375 29.103127Q259.98438 27.993752 260.5 27.650002Q261.01562 27.290627 261.625 27.290627Q262.51562 27.290627 263.4375 27.853127L262.82812 29.493752Q262.1875 29.103127 261.54688 29.103127Q260.96875 29.103127 260.5 29.462502Q260.04688 29.806252 259.84375 30.415627Q259.5625 31.353127 259.5625 32.4625L259.5625 37.9L257.79688 37.9ZM264.17188 32.7125Q264.17188 29.837502 265.76562 28.446877Q267.10938 27.290627 269.03125 27.290627Q271.17188 27.290627 272.51562 28.696877Q273.875 30.103127 273.875 32.571877Q273.875 34.571877 273.28125 35.728127Q272.6875 36.86875 271.53125 37.509377Q270.39062 38.134377 269.03125 38.134377Q266.84375 38.134377 265.5 36.74375Q264.17188 35.3375 264.17188 32.7125ZM265.96875 32.7125Q265.96875 34.7125 266.82812 35.696877Q267.70312 36.68125 269.03125 36.68125Q270.34375 36.68125 271.20312 35.696877Q272.07812 34.696877 272.07812 32.65Q272.07812 30.728127 271.20312 29.743752Q270.32812 28.743752 269.03125 28.743752Q267.70312 28.743752 266.82812 29.743752Q265.96875 30.728127 265.96875 32.7125ZM282.59375 36.61875Q281.60938 37.446877 280.70312 37.790627Q279.79688 38.134377 278.76562 38.134377Q277.0625 38.134377 276.14062 37.30625Q275.21875 36.4625 275.21875 35.165627Q275.21875 34.4 275.5625 33.775Q275.92188 33.15 276.48438 32.775Q277.04688 32.384377 277.75 32.18125Q278.26562 32.05625 279.3125 31.915627Q281.4375 31.665627 282.4375 31.321877Q282.45312 30.962502 282.45312 30.853127Q282.45312 29.790627 281.95312 29.337502Q281.28125 28.743752 279.95312 28.743752Q278.70312 28.743752 278.10938 29.181252Q277.53125 29.618752 277.25 30.728127L275.53125 30.493752Q275.76562 29.384377 276.29688 28.712502Q276.82812 28.025002 277.84375 27.665627Q278.85938 27.290627 280.20312 27.290627Q281.53125 27.290627 282.35938 27.603127Q283.1875 27.915627 283.57812 28.400002Q283.96875 28.868752 284.125 29.587502Q284.21875 30.040627 284.21875 31.212502L284.21875 33.55625Q284.21875 36.009377 284.32812 36.665627Q284.4375 37.30625 284.78125 37.9L282.9375 37.9Q282.67188 37.353127 282.59375 36.61875ZM282.4375 32.696877Q281.48438 33.0875 279.5625 33.353127Q278.48438 33.509377 278.03125 33.7125Q277.59375 33.9 277.34375 34.275Q277.09375 34.65 277.09375 35.11875Q277.09375 35.821877 277.625 36.290627Q278.15625 36.759377 279.1875 36.759377Q280.20312 36.759377 280.98438 36.321877Q281.78125 35.86875 282.15625 35.103127Q282.4375 34.49375 282.4375 33.3375L282.4375 32.696877ZM293.54688 37.9L293.54688 36.5875Q292.5625 38.134377 290.64062 38.134377Q289.40625 38.134377 288.35938 37.446877Q287.32812 36.759377 286.75 35.540627Q286.1875 34.321877 286.1875 32.728127Q286.1875 31.165627 286.70312 29.900002Q287.21875 28.634377 288.25 27.962502Q289.29688 27.290627 290.5625 27.290627Q291.5 27.290627 292.23438 27.696877Q292.96875 28.087502 293.4375 28.712502L293.4375 23.587502L295.17188 23.587502L295.17188 37.9L293.54688 37.9ZM287.98438 32.728127Q287.98438 34.7125 288.82812 35.696877Q289.67188 36.68125 290.8125 36.68125Q291.96875 36.68125 292.76562 35.74375Q293.57812 34.80625 293.57812 32.86875Q293.57812 30.743752 292.75 29.743752Q291.9375 28.743752 290.73438 28.743752Q289.5625 28.743752 288.76562 29.712502Q287.98438 30.665627 287.98438 32.728127ZM299.4375 37.9L297.8125 37.9L297.8125 23.587502L299.5625 23.587502L299.5625 28.696877Q300.6875 27.290627 302.40625 27.290627Q303.35938 27.290627 304.21875 27.681252Q305.07812 28.071877 305.625 28.775002Q306.17188 29.462502 306.48438 30.446877Q306.79688 31.431252 306.79688 32.55625Q306.79688 35.228127 305.48438 36.68125Q304.17188 38.134377 302.32812 38.134377Q300.48438 38.134377 299.4375 36.603127L299.4375 37.9ZM299.42188 32.634377Q299.42188 34.49375 299.92188 35.3375Q300.76562 36.68125 302.17188 36.68125Q303.32812 36.68125 304.15625 35.68125Q305.0 34.68125 305.0 32.696877Q305.0 30.665627 304.1875 29.712502Q303.39062 28.743752 302.25 28.743752Q301.09375 28.743752 300.25 29.743752Q299.42188 30.743752 299.42188 32.634377ZM315.59375 36.61875Q314.60938 37.446877 313.70312 37.790627Q312.79688 38.134377 311.76562 38.134377Q310.0625 38.134377 309.14062 37.30625Q308.21875 36.4625 308.21875 35.165627Q308.21875 34.4 308.5625 33.775Q308.92188 33.15 309.48438 32.775Q310.04688 32.384377 310.75 32.18125Q311.26562 32.05625 312.3125 31.915627Q314.4375 31.665627 315.4375 31.321877Q315.45312 30.962502 315.45312 30.853127Q315.45312 29.790627 314.95312 29.337502Q314.28125 28.743752 312.95312 28.743752Q311.70312 28.743752 311.10938 29.181252Q310.53125 29.618752 310.25 30.728127L308.53125 30.493752Q308.76562 29.384377 309.29688 28.712502Q309.82812 28.025002 310.84375 27.665627Q311.85938 27.290627 313.20312 27.290627Q314.53125 27.290627 315.35938 27.603127Q316.1875 27.915627 316.57812 28.400002Q316.96875 28.868752 317.125 29.587502Q317.21875 30.040627 317.21875 31.212502L317.21875 33.55625Q317.21875 36.009377 317.32812 36.665627Q317.4375 37.30625 317.78125 37.9L315.9375 37.9Q315.67188 37.353127 315.59375 36.61875ZM315.4375 32.696877Q314.48438 33.0875 312.5625 33.353127Q311.48438 33.509377 311.03125 33.7125Q310.59375 33.9 310.34375 34.275Q310.09375 34.65 310.09375 35.11875Q310.09375 35.821877 310.625 36.290627Q311.15625 36.759377 312.1875 36.759377Q313.20312 36.759377 313.98438 36.321877Q314.78125 35.86875 315.15625 35.103127Q315.4375 34.49375 315.4375 33.3375L315.4375 32.696877ZM319.8125 37.9L319.8125 27.525002L321.40625 27.525002L321.40625 29.009377Q322.54688 27.290627 324.70312 27.290627Q325.64062 27.290627 326.42188 27.634377Q327.21875 27.962502 327.60938 28.509377Q328.0 29.056252 328.15625 29.806252Q328.25 30.306252 328.25 31.525002L328.25 37.9L326.48438 37.9L326.48438 31.587502Q326.48438 30.509377 326.28125 29.978127Q326.07812 29.446877 325.54688 29.134377Q325.03125 28.821877 324.32812 28.821877Q323.20312 28.821877 322.39062 29.540627Q321.57812 30.243752 321.57812 32.228127L321.57812 37.9L319.8125 37.9ZM337.54688 37.9L337.54688 36.5875Q336.5625 38.134377 334.64062 38.134377Q333.40625 38.134377 332.35938 37.446877Q331.32812 36.759377 330.75 35.540627Q330.1875 34.321877 330.1875 32.728127Q330.1875 31.165627 330.70312 29.900002Q331.21875 28.634377 332.25 27.962502Q333.29688 27.290627 334.5625 27.290627Q335.5 27.290627 336.23438 27.696877Q336.96875 28.087502 337.4375 28.712502L337.4375 23.587502L339.17188 23.587502L339.17188 37.9L337.54688 37.9ZM331.98438 32.728127Q331.98438 34.7125 332.82812 35.696877Q333.67188 36.68125 334.8125 36.68125Q335.96875 36.68125 336.76562 35.74375Q337.57812 34.80625 337.57812 32.86875Q337.57812 30.743752 336.75 29.743752Q335.9375 28.743752 334.73438 28.743752Q333.5625 28.743752 332.76562 29.712502Q331.98438 30.665627 331.98438 32.728127ZM347.40625 33.30625L349.1875 33.15Q349.3125 34.2125 349.76562 34.9Q350.23438 35.5875 351.20312 36.025Q352.1875 36.446877 353.42188 36.446877Q354.5 36.446877 355.32812 36.134377Q356.15625 35.80625 356.5625 35.24375Q356.96875 34.68125 356.96875 34.009377Q356.96875 33.3375 356.57812 32.8375Q356.1875 32.3375 355.29688 31.993752Q354.71875 31.759377 352.73438 31.290627Q350.76562 30.821877 349.98438 30.400002Q348.95312 29.868752 348.45312 29.071877Q347.95312 28.275002 347.95312 27.290627Q347.95312 26.196877 348.5625 25.259377Q349.17188 24.321877 350.35938 23.837502Q351.54688 23.337502 352.98438 23.337502Q354.57812 23.337502 355.79688 23.853127Q357.01562 24.368752 357.65625 25.368752Q358.3125 26.353127 358.35938 27.618752L356.54688 27.759377Q356.40625 26.400002 355.5625 25.712502Q354.71875 25.009377 353.0625 25.009377Q351.34375 25.009377 350.54688 25.650002Q349.76562 26.275002 349.76562 27.150002Q349.76562 27.931252 350.32812 28.431252Q350.875 28.931252 353.1875 29.446877Q355.5 29.962502 356.35938 30.353127Q357.60938 30.931252 358.20312 31.821877Q358.79688 32.696877 358.79688 33.853127Q358.79688 34.99375 358.14062 36.009377Q357.48438 37.025 356.25 37.5875Q355.03125 38.15 353.5 38.15Q351.5625 38.15 350.25 37.5875Q348.9375 37.009377 348.1875 35.86875Q347.4375 34.728127 347.40625 33.30625ZM360.8125 41.86875L360.8125 27.525002L362.42188 27.525002L362.42188 28.868752Q362.98438 28.087502 363.6875 27.696877Q364.40625 27.290627 365.42188 27.290627Q366.75 27.290627 367.76562 27.978127Q368.78125 28.665627 369.29688 29.915627Q369.82812 31.150002 369.82812 32.634377Q369.82812 34.228127 369.25 35.509377Q368.6875 36.775 367.59375 37.4625Q366.5 38.134377 365.29688 38.134377Q364.42188 38.134377 363.71875 37.759377Q363.03125 37.384377 362.57812 36.821877L362.57812 41.86875L360.8125 41.86875ZM362.40625 32.775Q362.40625 34.775 363.21875 35.728127Q364.03125 36.68125 365.1875 36.68125Q366.35938 36.68125 367.1875 35.696877Q368.03125 34.7125 368.03125 32.61875Q368.03125 30.650002 367.20312 29.665627Q366.39062 28.665627 365.26562 28.665627Q364.14062 28.665627 363.26562 29.728127Q362.40625 30.775002 362.40625 32.775ZM378.92188 34.55625L380.73438 34.790627Q380.3125 36.36875 379.14062 37.259377Q377.98438 38.134377 376.17188 38.134377Q373.90625 38.134377 372.5625 36.74375Q371.23438 35.3375 371.23438 32.80625Q371.23438 30.181252 372.57812 28.743752Q373.92188 27.290627 376.07812 27.290627Q378.15625 27.290627 379.46875 28.712502Q380.79688 30.118752 380.79688 32.696877Q380.79688 32.853127 380.78125 33.165627L373.04688 33.165627Q373.14062 34.86875 374.01562 35.775Q374.89062 36.68125 376.1875 36.68125Q377.15625 36.68125 377.82812 36.18125Q378.51562 35.665627 378.92188 34.55625ZM373.14062 31.712502L378.9375 31.712502Q378.82812 30.415627 378.28125 29.759377Q377.4375 28.743752 376.09375 28.743752Q374.89062 28.743752 374.0625 29.556252Q373.23438 30.353127 373.14062 31.712502ZM389.92188 34.55625L391.73438 34.790627Q391.3125 36.36875 390.14062 37.259377Q388.98438 38.134377 387.17188 38.134377Q384.90625 38.134377 383.5625 36.74375Q382.23438 35.3375 382.23438 32.80625Q382.23438 30.181252 383.57812 28.743752Q384.92188 27.290627 387.07812 27.290627Q389.15625 27.290627 390.46875 28.712502Q391.79688 30.118752 391.79688 32.696877Q391.79688 32.853127 391.78125 33.165627L384.04688 33.165627Q384.14062 34.86875 385.01562 35.775Q385.89062 36.68125 387.1875 36.68125Q388.15625 36.68125 388.82812 36.18125Q389.51562 35.665627 389.92188 34.55625ZM384.14062 31.712502L389.9375 31.712502Q389.82812 30.415627 389.28125 29.759377Q388.4375 28.743752 387.09375 28.743752Q385.89062 28.743752 385.0625 29.556252Q384.23438 30.353127 384.14062 31.712502ZM400.54688 37.9L400.54688 36.5875Q399.5625 38.134377 397.64062 38.134377Q396.40625 38.134377 395.35938 37.446877Q394.32812 36.759377 393.75 35.540627Q393.1875 34.321877 393.1875 32.728127Q393.1875 31.165627 393.70312 29.900002Q394.21875 28.634377 395.25 27.962502Q396.29688 27.290627 397.5625 27.290627Q398.5 27.290627 399.23438 27.696877Q399.96875 28.087502 400.4375 28.712502L400.4375 23.587502L402.17188 23.587502L402.17188 37.9L400.54688 37.9ZM394.98438 32.728127Q394.98438 34.7125 395.82812 35.696877Q396.67188 36.68125 397.8125 36.68125Q398.96875 36.68125 399.76562 35.74375Q400.57812 34.80625 400.57812 32.86875Q400.57812 30.743752 399.75 29.743752Q398.9375 28.743752 397.73438 28.743752Q396.5625 28.743752 395.76562 29.712502Q394.98438 30.665627 394.98438 32.728127ZM404.10938 34.80625L405.85938 34.525Q406.0 35.571877 406.67188 36.134377Q407.34375 36.68125 408.54688 36.68125Q409.75 36.68125 410.32812 36.196877Q410.92188 35.696877 410.92188 35.040627Q410.92188 34.446877 410.40625 34.103127Q410.04688 33.86875 408.60938 33.509377Q406.67188 33.009377 405.92188 32.665627Q405.1875 32.30625 404.79688 31.681252Q404.40625 31.040627 404.40625 30.275002Q404.40625 29.587502 404.71875 28.993752Q405.04688 28.400002 405.59375 28.009377Q406.0 27.712502 406.70312 27.509377Q407.42188 27.290627 408.23438 27.290627Q409.45312 27.290627 410.375 27.650002Q411.29688 27.993752 411.73438 28.603127Q412.17188 29.196877 412.34375 30.196877L410.625 30.431252Q410.5 29.634377 409.9375 29.196877Q409.375 28.743752 408.35938 28.743752Q407.14062 28.743752 406.625 29.150002Q406.10938 29.540627 406.10938 30.071877Q406.10938 30.415627 406.32812 30.696877Q406.53125 30.978127 407.0 31.165627Q407.26562 31.259377 408.54688 31.603127Q410.42188 32.103127 411.15625 32.43125Q411.89062 32.74375 412.3125 33.353127Q412.73438 33.946877 412.73438 34.853127Q412.73438 35.728127 412.21875 36.509377Q411.70312 37.290627 410.73438 37.7125Q409.76562 38.134377 408.54688 38.134377Q406.53125 38.134377 405.46875 37.290627Q404.40625 36.446877 404.10938 34.80625Z" fill-rule="nonzero"/></svg>